<svg width="520" height="416" viewBox="0 0 520 416" fill="none" xmlns="http://www.w3.org/2000/svg">
<path d="M90.7509 328.957C89.6745 315.509 77.7499 288.446 62.3724 272.085C46.9949 255.724 24.1383 244.77 9.02636 251.339C-5.00913 257.503 -1.93362 276.413 16.6592 287.606C35.252 298.798 62.9176 312.526 72.3958 333.706L90.7509 359.144V328.957Z" fill="#27DEBF"/>
<path opacity="0.1" d="M90.7509 328.957C89.6745 315.509 77.7499 288.446 62.3724 272.085C46.9949 255.724 24.1383 244.77 9.02636 251.339C-5.00913 257.503 -1.93362 276.413 16.6592 287.606C35.252 298.798 62.9176 312.526 72.3958 333.706L90.7509 359.144V328.957Z" fill="black"/>
<path d="M93.2113 347.265C92.7735 347.268 92.3889 346.974 92.2747 346.551C79.6092 301.389 39.5717 267.07 16.785 260.627C16.3132 260.439 16.0588 259.924 16.1954 259.435C16.3321 258.945 16.8156 258.637 17.3162 258.721C40.5782 265.305 81.3427 300.171 94.2039 346.018C94.2815 346.315 94.2182 346.631 94.0325 346.874C93.8467 347.118 93.5592 347.262 93.2533 347.265H93.2113Z" fill="white"/>
<path d="M88.7379 377.144C85.942 369.762 75.7788 358.037 60.0518 348.932C42.6612 338.874 21.3843 335.316 15.8624 326.828C9.23604 316.644 17.3861 305.816 34.4832 306.6C51.5802 307.385 83.202 328.116 90.7509 362.576L88.7379 377.144Z" fill="#27DEBF"/>
<path d="M91.38 368.991C90.996 368.989 90.6476 368.766 90.4853 368.417C73.2904 330.232 42.2558 318.857 28.2483 318.157C27.8987 318.139 27.5849 317.936 27.4253 317.624C27.2656 317.312 27.2842 316.938 27.4742 316.644C27.6641 316.349 27.9965 316.178 28.3461 316.196C43.8355 316.952 74.7303 328.635 92.2747 367.605C92.3832 367.842 92.3926 368.113 92.3008 368.358C92.2089 368.603 92.0234 368.8 91.7854 368.907C91.6576 368.963 91.5195 368.992 91.38 368.991Z" fill="white"/>
<path d="M437.36 330.736C438.297 319.067 443.623 299.919 457.17 281.708C471.652 262.181 489.323 249.966 502.435 255.682C514.654 261.005 510.026 277.912 488.987 294.582C474.239 306.278 458.931 321.505 450.697 339.883L437.36 363.276V330.736Z" fill="#27DEBF"/>
<g opacity="0.1">
<path opacity="0.1" d="M437.36 330.736C438.297 319.067 443.623 299.919 457.17 281.708C471.652 262.181 489.323 249.966 502.435 255.682C514.654 261.005 510.026 277.912 488.987 294.582C474.239 306.278 458.931 321.505 450.697 339.883L437.36 363.276V330.736Z" fill="black"/>
</g>
<path d="M438.535 339.631C438.884 339.63 439.195 339.412 439.318 339.085C451.046 306.74 475.455 274.018 496.103 262.952C496.298 262.851 496.445 262.674 496.508 262.463C496.571 262.252 496.546 262.023 496.438 261.831C496.334 261.638 496.158 261.494 495.949 261.431C495.739 261.368 495.513 261.391 495.32 261.495C474.35 272.701 449.607 305.83 437.766 338.538C437.689 338.744 437.698 338.973 437.79 339.172C437.881 339.372 438.049 339.527 438.255 339.603L438.535 339.631Z" fill="white"/>
<path d="M438.535 370.602C445.311 375.937 453.366 379.395 461.895 380.632C476.615 382.971 483.116 375.911 483.116 375.911C483.116 375.911 477.314 362.085 468.954 358.205C468.954 358.205 483.13 361.091 494.495 368.697C494.495 368.697 503.484 368.837 507.077 355.096C507.077 355.096 501.75 346.817 483.884 342.348C483.884 342.348 494.761 339.547 510.446 343.623C511.62 344.085 516.625 326.309 518.148 318.115C519.672 309.92 516.373 310.004 509.998 308.309C503.624 306.614 481.899 305.508 477.845 309.052C473.791 312.596 471.82 324.586 471.82 324.586C471.82 324.586 468.004 317.779 468.912 311.713C464.465 310.434 459.734 310.547 455.352 312.035C448.181 314.543 448.642 318.031 448.642 323.242C448.613 328.505 449.334 333.745 450.781 338.804C450.781 338.804 445.832 334.518 445.664 318.703C445.664 318.703 435.976 327.01 432.09 334.112C428.204 341.214 429.196 359.956 438.535 370.602Z" fill="#27DEBF"/>
<path d="M438.535 371.443C438.855 371.436 439.145 371.253 439.29 370.967C451.158 346.243 495.32 317.513 511.131 314.431C511.581 314.339 511.873 313.902 511.788 313.45C511.696 313.007 511.266 312.72 510.823 312.806C494.733 315.93 449.858 345.122 437.794 370.238C437.698 370.437 437.686 370.665 437.759 370.873C437.833 371.081 437.986 371.251 438.185 371.345C438.293 371.404 438.412 371.437 438.535 371.443Z" fill="white"/>
<path d="M234.508 94.8741L220.594 142.51L235.801 150.384L247.658 110.678L234.508 94.8741Z" fill="#FFA8A7"/>
<path d="M250.021 76.1192C242.64 76.9164 236.19 83.6016 233.23 94.0769C230.269 104.552 226.279 120.846 226.279 120.846C226.279 120.846 234.369 129.755 245.351 127.055L250.021 76.1192Z" fill="#E6E6E6"/>
<path d="M231.047 352.24V350.226C230.227 352.576 226.404 362.66 220.789 367.652C216.313 371.624 210.238 376.198 208.639 380.687C207.041 385.177 216.896 387.079 221.025 386.407C225.821 385.638 232.048 383.009 235.481 378.897C237.9 376.002 239.457 372.561 241.195 370.282C242.932 368.002 246.852 365.499 247.811 362.855C248.339 361.457 247.811 358.184 247.13 355.471C246.449 352.758 245.865 350.226 245.017 350.45C245.017 350.758 245.017 351.974 245.017 351.974C243.989 353.093 241.167 354.17 237.997 354.24C235.954 354.296 231.005 353.807 231.047 352.24Z" fill="#263238"/>
<path d="M216.771 371.149C218.161 369.946 219.551 368.771 220.816 367.638C224.736 364.156 227.767 358.17 229.546 354.086C230.549 351.757 231.087 349.253 231.131 346.716L231.256 338.702L245.907 338.017L245.017 352.002V352.338H244.934C244.225 355.247 237.692 362.911 233.966 367.918C231.478 371.275 226.766 375.512 221.219 376.17C215.951 376.813 213.296 375.107 216.771 371.149Z" fill="#FFA8A7"/>
<path d="M302.496 354.8L301.968 352.87C301.829 355.345 300.995 366.114 297.005 372.45C293.822 377.526 289.277 383.638 288.985 388.393C288.693 393.149 298.715 392.184 302.482 390.379C306.875 388.268 312.115 383.974 314.256 379.065C315.757 375.61 316.299 371.862 317.314 369.191C318.329 366.52 321.415 362.995 321.596 360.184C321.693 358.632 320.205 355.709 318.815 353.289C317.425 350.87 316.133 348.618 315.382 349.093C315.451 349.387 315.785 350.576 315.785 350.576C315.104 351.974 312.699 353.765 309.683 354.772C307.792 355.387 302.899 356.324 302.496 354.8Z" fill="#263238"/>
<path d="M294.1 376.995C295.087 375.443 296.102 373.918 297.005 372.492C299.785 368.016 301.037 361.429 301.593 357.009C301.903 354.489 301.714 351.931 301.037 349.485L298.924 341.765L312.379 338.017L315.841 350.604L315.924 350.939C316.049 353.932 311.935 363.135 309.752 368.995C308.362 372.925 304.984 378.324 299.827 380.533C294.906 382.659 291.876 381.778 294.1 376.995Z" fill="#FFA8A7"/>
<path d="M294.962 149.53C302.719 159.544 304.122 169.894 302.427 199.166C300.731 228.438 300.203 252.941 300.633 254.592C301.064 256.242 307.361 269.682 309.669 280.549C312.379 293.262 313.047 340.436 313.047 340.436C309.511 343.977 304.368 345.357 299.549 344.058C299.549 344.058 277.086 268.088 274.903 261.542C272.721 254.997 258.918 185.572 258.918 185.572L261.017 146.412L294.962 149.53Z" fill="#37474F"/>
<path d="M235.704 183.222C236.885 169.698 239.763 146.272 239.763 146.272L274.125 144.244C279.685 152.971 277.267 167.488 275.751 180.607L256.096 258.018C256.499 261.724 259.891 269.584 256.096 289.514C251.926 311.765 246.018 341.08 246.018 341.08C246.018 341.08 238.623 344.506 231.214 341.373C231.214 341.373 228.434 270.871 230.185 251.613C232.201 230.788 234.898 192.467 235.704 183.222Z" fill="#37474F"/>
<path d="M264.937 216.047L259.377 187.656C254.41 185.877 249.696 183.456 245.351 180.453C248.128 183.987 251.439 187.059 255.165 189.558L264.937 216.047Z" fill="#263238"/>
<path d="M235.801 71.8116H263.477C282.179 71.8116 297.339 56.5583 297.339 37.7423C297.343 29.5313 294.103 21.6553 288.334 15.848C282.565 10.0406 274.738 6.77783 266.577 6.77783C249.58 6.77783 235.801 20.6411 235.801 37.7423V71.8116Z" fill="#263238"/>
<path d="M292.182 77.0982C297.52 77.3639 301.454 78.3709 305.082 88.9302C308.71 99.4894 316.272 140.02 313.742 144.244L296.866 137.083L292.696 114.832C283.091 106.594 283.633 80.0632 292.182 77.0982Z" fill="#FFA8A7"/>
<path d="M241.931 124.3C241.083 132.202 237.928 161.376 237.928 161.376C263.825 175.278 295.949 166.076 300.87 160.342C296.422 145.587 291.626 137.195 287.956 133.265L292.627 114.832C292.627 114.832 281.061 98.1888 292.182 77.0703L278.448 75.9374L258.278 75.35C253.455 75.6158 250.021 76.0913 250.021 76.0913C246.922 79.0003 242.056 86.9862 238.901 95.1259C236.858 100.399 234.661 108.776 241.931 124.3Z" fill="#F5F5F5"/>
<path d="M292.182 77.0982C298.256 76.7486 301.912 78.259 306.291 88.077C310.67 97.8951 314.214 121.867 314.214 121.867C314.214 121.867 310.503 129.461 292.154 127.307L289.374 110.664C289.374 110.664 281.284 93.3637 292.182 77.0982Z" fill="#E6E6E6"/>
<path d="M290.278 124.104C290.055 125.013 283.981 133.083 281.006 134.985C278.031 136.887 286.288 139.517 287.442 144.244C289.791 153.782 282.966 164.076 259.794 164.705C254.317 164.845 254.08 166.02 256.916 167.698C277.503 171.111 297.117 164.719 300.87 160.341C296.422 145.587 291.626 137.195 287.956 133.265L290.278 124.104Z" fill="#E6E6E6"/>
<path d="M246.797 20.2601C243.544 22.1901 239.527 30.4138 239.916 47.6582C240.263 62.2733 244.962 65.8397 247.325 66.9306C249.688 68.0215 254.275 67.3362 258.681 66.5949V75.364C258.954 77.2198 259.955 78.8878 261.462 79.9933C265.062 82.273 269.343 81.3919 271.748 80.5387C277.044 78.6227 278.101 75.9934 278.101 75.9934L278.003 55.8259C278.003 55.8259 280.603 58.3853 285.023 54.4273C288.679 51.2246 289.916 45.8121 287.066 42.903C285.572 41.4984 283.496 40.904 281.49 41.306C279.484 41.708 277.793 43.0572 276.947 44.931C276.947 44.931 274.347 45.1408 271.748 40.2877C271.748 40.2877 271.831 27.0851 268.968 25.3649C259.627 19.9664 253.052 20.2601 246.797 20.2601Z" fill="#FFA8A7"/>
<path d="M256.138 43.0569C256.132 44.0575 256.924 44.878 257.919 44.8999C258.913 44.9219 259.741 44.1372 259.778 43.1373C259.816 42.1374 259.049 41.2922 258.056 41.2387C257.03 41.2151 256.175 42.025 256.138 43.0569Z" fill="#263238"/>
<g style="mix-blend-mode:multiply" opacity="0.5">
<g style="mix-blend-mode:multiply" opacity="0.5">
<path d="M255.651 56.3713L251.411 57.7699C251.566 58.3519 251.95 58.8447 252.476 59.133C253.002 59.4212 253.622 59.4795 254.192 59.2943C255.383 58.8766 256.029 57.5823 255.651 56.3713Z" fill="#F28F8F"/>
</g>
</g>
<path d="M242.168 37.3227L245.865 34.7494C245.557 34.2406 245.054 33.8828 244.475 33.7609C243.895 33.639 243.292 33.764 242.807 34.106C241.781 34.8391 241.501 36.2492 242.168 37.3227Z" fill="#263238"/>
<path d="M258.681 36.6094L262.852 38.2318C263.097 37.6869 263.106 37.0641 262.876 36.5124C262.647 35.9606 262.2 35.5297 261.642 35.3227C260.473 34.902 259.179 35.4642 258.681 36.6094Z" fill="#263238"/>
<path d="M241.347 42.6653C241.334 43.6753 242.129 44.5089 243.133 44.5361C244.136 44.5632 244.975 43.7738 245.016 42.7645C245.056 41.7551 244.282 40.9008 243.28 40.8471C242.783 40.8282 242.3 41.0097 241.937 41.3511C241.574 41.6925 241.362 42.1656 241.347 42.6653Z" fill="#263238"/>
<g style="mix-blend-mode:multiply" opacity="0.5">
<g style="mix-blend-mode:multiply" opacity="0.5">
<path d="M250.633 41.6163L250.341 52.6791L244.559 50.8749L250.633 41.6163Z" fill="#F28F8F"/>
</g>
</g>
<g style="mix-blend-mode:multiply" opacity="0.5">
<g style="mix-blend-mode:multiply" opacity="0.5">
<path d="M258.681 66.595C263.352 65.9796 272.971 63.1964 274.459 59.3783C273.857 61.3078 272.683 63.0061 271.095 64.2453C268.217 66.7208 258.681 69.518 258.681 69.518V66.595Z" fill="#F28F8F"/>
</g>
</g>
<path d="M271.025 8.42812L271.734 0.31638C270.671 0.16652 269.594 0.461711 268.753 1.13307C267.912 1.80443 267.382 2.79324 267.286 3.86876C267.076 6.16392 268.746 8.19965 271.025 8.42812Z" fill="#263238"/>
<path d="M271.456 9.2533L277.989 4.4422C277.4 3.54865 276.475 2.934 275.427 2.73891C274.379 2.54382 273.297 2.785 272.429 3.40725C270.612 4.78597 270.185 7.35416 271.456 9.2533Z" fill="#263238"/>
<path d="M276.933 44.9869V52.7071C275.553 52.7108 274.229 52.1609 273.253 51.1792C272.277 50.1974 271.73 48.8648 271.734 47.4764V40.3856L276.933 44.9869Z" fill="#263238"/>
<path d="M256.138 8.60993C249.285 8.60622 242.713 11.3423 237.866 16.216C233.02 21.0896 230.297 27.7013 230.297 34.5955V37.966H242.946C248.827 37.9641 253.802 33.5914 254.595 27.7285L255.067 37.966C259.917 37.9697 263.962 34.2395 264.381 29.3788L264.534 27.7005C265.009 33.4846 269.802 37.9423 275.571 37.966H276.683L277.975 19.6027L256.138 8.60993Z" fill="#263238"/>
<path fill-rule="evenodd" clip-rule="evenodd" d="M280.978 41.5185H266.535C265.939 38.6989 263.465 36.6822 260.6 36.6794H259.668C257.231 36.7046 255.043 38.1904 254.108 40.4555C253.172 39.5022 251.909 38.9465 250.577 38.9031C249.455 38.8111 248.339 39.1454 247.45 39.8402C246.394 37.8956 244.37 36.684 242.168 36.6794H241.236C237.889 36.6794 235.176 39.4095 235.176 42.7772C235.176 46.1449 237.889 48.875 241.236 48.875H242.168C243.775 48.875 245.317 48.2325 246.453 47.089C247.59 45.9454 248.228 44.3944 248.228 42.7772C248.222 42.1187 248.104 41.4661 247.881 40.8471C248.587 40.1703 249.552 39.8382 250.522 39.9381C251.788 39.9458 252.977 40.5518 253.733 41.5744C253.649 41.9791 253.607 42.3916 253.608 42.8051C253.615 46.1697 256.324 48.8953 259.668 48.9029H260.6C263.947 48.9029 266.66 46.1729 266.66 42.8051V42.5814H278.949C279.562 42.1167 280.248 41.7575 280.978 41.5185ZM242.126 47.84H241.195C238.415 47.84 236.163 45.5733 236.163 42.7772C236.163 39.981 238.415 37.7143 241.195 37.7143H242.126C244.905 37.7143 247.158 39.981 247.158 42.7772C247.158 45.5733 244.905 47.84 242.126 47.84ZM259.668 47.84H260.6C263.379 47.84 265.632 45.5733 265.632 42.7772C265.632 39.981 263.379 37.7143 260.6 37.7143H259.668C256.889 37.7143 254.636 39.981 254.636 42.7772C254.636 45.5733 256.889 47.84 259.668 47.84Z" fill="#455A64"/>
<path d="M313.742 144.244C309.975 148.663 275.751 180.607 275.751 180.607L276.933 161.321L296.866 137.097L313.742 144.244Z" fill="#FFA8A7"/>
<path d="M247.631 195.362L259.224 187.082C270.344 179.18 283.508 166.761 283.508 152.482C283.223 142.14 275.607 133.493 265.437 131.964C256.291 130.734 248.756 139.796 247.589 148.524C246.449 139.489 238.887 128.398 229.74 127.181C225.194 126.396 220.537 127.703 217.05 130.742C213.563 133.782 211.614 138.234 211.739 142.873C211.739 157.181 224.917 173.111 235.954 183.963L247.631 195.362Z" fill="#204341"/>
<path d="M279.171 166.943C274.514 169.74 266.563 169.838 261.211 170.076C255.86 170.313 249.243 178.551 253.594 181.88C260.46 186.389 269.447 185.868 275.751 180.593L279.171 166.943Z" fill="#FFA8A7"/>
<path d="M212.351 148.104C211.072 149.139 210.697 152.51 211.475 156.09C212.254 159.67 215.27 165.251 219.551 166.943C221.511 167.726 230.032 167.978 234.133 163.544C238.47 158.845 238.123 150.803 231.881 152.23C225.927 153.356 219.848 153.666 213.81 153.153C213.204 151.507 212.716 149.82 212.351 148.104Z" fill="#FFA8A7"/>
<path d="M439.727 363.891H425.993V383.997H439.727V363.891Z" fill="#FFA8A7"/>
<path d="M425.993 377.173V375.212C424.684 375.786 421.619 387.5 416.173 392.488C411.855 396.467 405.95 401.048 404.445 405.476C402.941 409.904 412.663 412.636 416.717 411.907C421.411 411.067 429.559 407.704 431.606 404.663C433.654 401.623 434.601 397.013 436.273 394.757C437.944 392.502 441.761 389.966 442.652 387.36C443.153 385.958 442.568 382.764 441.872 380.102C441.231 377.664 440.549 374.974 439.713 375.212V376.711C438.724 377.818 435.966 378.925 432.86 379.051C430.896 379.121 425.979 378.729 425.993 377.173Z" fill="#263238"/>
<path d="M379.178 368.613L365.459 369.089L366.629 348.759L380.348 348.282L379.178 368.613Z" fill="#FFA8A7"/>
<path d="M365.709 364.83C364.985 364.83 364.442 365.866 362.923 367.632C360.58 370.021 357.854 371.996 354.859 373.474C349.719 376.067 339.718 380.046 335.205 382.091C332.419 383.38 332.503 386.813 335.428 388.761C338.353 390.708 345.401 392.123 353.87 390.162C358.48 389.125 364.484 384.838 368.286 385.076C372.089 385.314 379.192 385.244 381.992 383.296C384.792 381.349 383.677 377.201 382.883 373.629C382.02 369.733 380.78 363.639 379.499 363.905L379.415 365.53C377.758 368.052 369.275 368.557 365.654 366.707L365.709 364.83Z" fill="#263238"/>
<path d="M381.351 106.378C375.153 112.361 338.632 131.599 336.626 131.248C333.617 130.828 322.697 120.039 313.365 110.063C311.902 102.469 309.757 92.8997 307.361 87.5474C306.131 84.4163 304.299 81.5597 301.971 79.1406L302.598 76.5626L337.949 110.19C337.949 110.19 376.741 80.7659 382.521 79.0846C388.302 77.4032 387.55 100.396 381.351 106.378Z" fill="#F28F8F"/>
<path d="M288.822 72.135C284.086 73.326 280.465 76.5486 281.259 81.7047C281.774 85.0954 287.346 87.5754 290.34 84.9973C292.75 82.9097 299.965 77.9077 303.266 80.4717C304.014 81.9943 304.272 83.713 304.005 85.3897C303.782 88.0798 305.147 89.9993 305.955 89.8732C306.763 89.7471 308.016 85.4597 308.142 83.7784C308.323 81.1723 306.846 73.5221 295.271 71.9809C293.131 71.6307 290.944 71.683 288.822 72.135Z" fill="#FFA8A7"/>
<path d="M467.222 157.94C466.916 153.736 459.854 134.709 456.344 126.849L438.557 135.256L445.368 150.948L463.796 165.268C468.573 164.511 467.362 159.705 467.222 157.94Z" fill="#FFA8A7"/>
<path d="M432.4 169.345C432.4 182.53 434.1 267.83 434.1 267.83C434.42 271.613 439.226 284.097 439.671 301.737C440.228 321.549 440.813 366.189 440.813 366.189C440.813 366.189 434.378 372.606 425.297 366.189C425.297 366.189 410.323 300.98 405.713 276.209C403.568 259.087 398.205 209.978 398.205 209.978L387.062 265.882C388.042 272.453 388.508 279.092 388.455 285.736C388.455 294.844 380.557 353.915 380.557 353.915C380.557 353.915 372.799 358.651 365.361 354.167C365.361 354.167 360.89 274.205 360.765 265.896C360.611 255.724 368.105 169.331 368.105 169.331L432.4 169.345Z" fill="#37474F"/>
<path d="M398.247 210.006L396.645 198.068C396.645 198.068 386.296 193.29 382.716 189.899C382.716 189.899 389.221 198.544 393.316 200.954L388.302 260.096L398.247 210.006Z" fill="#263238"/>
<path d="M387.717 77.3332C380.571 77.3332 371.002 83.6663 362.924 89.9433C354.845 96.2203 348.131 101.39 348.131 101.39C349.524 108.985 354.329 115.934 359.511 121.623L382.507 109.083C382.507 109.083 392.536 88.5422 387.717 77.3332Z" fill="#E6E6E6"/>
<path d="M411.73 78.0197C424.043 81.0041 439.657 86.0061 445.159 97.4113C450.661 108.816 459.088 127.311 459.088 127.311C453.362 132.939 446.372 137.096 438.71 139.431L432.456 128.474V169.345C422.831 179.867 389.277 184.757 368.258 169.345V102.091C368.258 91.3304 374.192 78.412 390.544 77.4453L411.73 78.0197Z" fill="#F5F5F5"/>
<path d="M432.4 128.474C432.4 128.474 426.23 117.714 424.893 115.121L432.4 141.112V128.474Z" fill="#E6E6E6"/>
<path d="M416.354 22.9696C418.595 22.706 420.831 23.497 422.413 25.1133C425.004 27.7895 424.475 32.7354 422.413 44.1126L414.39 45.0373L416.354 22.9696Z" fill="#263238"/>
<path d="M369.512 19.677C367.783 19.692 366.071 19.3437 364.484 18.6542C362.018 17.253 361.377 20.0553 362.728 22.5073C364.551 26.0695 368.077 28.4286 372.047 28.7423C372.117 28.392 374.359 22.4372 374.359 22.4372L369.512 19.677Z" fill="#263238"/>
<path d="M412.594 45.1073C413.778 45.8219 415.477 43.5101 416.953 41.9688C418.43 40.4276 423.221 38.2979 425.617 43.3699C428.013 48.442 422.525 55.4196 419.266 57.6894C415.407 60.3936 412.594 58.2779 412.594 58.2779L411.73 78.0617C411.73 78.0617 407.468 88.5562 395.921 90.1394C384.374 91.7227 386.742 82.083 390.503 77.3332V70.1454C390.503 70.1454 384.541 71.3223 381.713 70.5938C377.569 69.2674 374.359 65.9439 373.161 61.7387C369.982 51.1979 369.319 40.0516 371.225 29.2046C374.15 11.2562 394.277 10.99 405.56 18.0937C416.842 25.1974 412.594 45.1073 412.594 45.1073Z" fill="#FFA8A7"/>
<path d="M412.594 47.0689C413.193 47.0689 415.463 43.2719 416.953 41.9128C419.015 40.0212 416.354 22.9696 416.354 22.9696C416.354 22.9696 418.444 16.5104 414.377 12.223C410.309 7.93554 402.426 8.65011 396.659 8.43994C389.583 8.47302 382.576 7.04228 376.072 4.23658C367.882 0.649701 367.269 0.229365 366.322 3.84426C365.375 7.45916 364.929 15.7398 369.804 21.2882L373.858 22.7874C373.858 22.7874 376.058 24.749 383.691 25.6878C391.324 26.6265 403.192 25.5056 404.835 25.2814C407.05 24.9732 407.524 27.1309 408.707 33.0296C409.696 38.2558 410.574 47.0269 412.594 47.0689Z" fill="#263238"/>
<path d="M416.34 24.3007L423.556 20.4055C423.089 19.419 422.243 18.6667 421.212 18.3228C420.181 17.979 419.055 18.0733 418.096 18.5841C416.091 19.7159 415.32 22.229 416.34 24.3007Z" fill="#263238"/>
<path d="M390.503 70.2014C390.503 70.2014 401.2 68.0297 404.933 65.9981C407.134 64.8512 408.936 63.0578 410.1 60.856C409.54 63.0551 408.545 65.1183 407.175 66.9228C404.39 70.4396 390.461 73.0317 390.461 73.0317L390.503 70.2014Z" fill="#F28F8F"/>
<path d="M393.135 42.3051C393.124 42.8848 393.342 43.4452 393.742 43.8631C394.142 44.2809 394.69 44.5218 395.266 44.5329C396.177 44.5729 397.02 44.0514 397.395 43.2159C397.77 42.3804 397.601 41.3994 396.97 40.7388C396.338 40.0782 395.37 39.8712 394.525 40.2161C393.681 40.561 393.13 41.3883 393.135 42.3051Z" fill="#263238"/>
<path d="M395.795 33.4359L400.378 35.9719C401.036 34.655 400.567 33.0505 399.306 32.301C398.694 31.9667 397.972 31.8989 397.309 32.1132C396.646 32.3276 396.099 32.8055 395.795 33.4359Z" fill="#263238"/>
<path d="M393.288 56.9749L388.399 58.8243C388.614 59.4896 389.089 60.0384 389.714 60.3449C390.339 60.6514 391.061 60.6892 391.714 60.4496C393.064 59.8858 393.751 58.3691 393.288 56.9749Z" fill="#F28F8F"/>
<path d="M373.273 36.1542L377.451 32.9036C377.052 32.3324 376.438 31.9497 375.752 31.8439C375.066 31.7382 374.367 31.9184 373.816 32.3431C372.659 33.2675 372.42 34.94 373.273 36.1542Z" fill="#263238"/>
<path d="M375.306 41.7446C375.359 42.922 376.342 43.8386 377.513 43.8033C378.684 43.7679 379.611 42.7938 379.594 41.6153C379.577 40.4368 378.623 39.49 377.451 39.4888C376.245 39.5269 375.29 40.5302 375.306 41.7446Z" fill="#263238"/>
<path d="M386.226 39.699L385.516 52.6734L378.788 50.3615L386.226 39.699Z" fill="#F28F8F"/>
<path d="M361.907 179.685L371.114 174.753C379.903 170.046 390.391 162.059 390.391 150.724C390.391 142.78 383.998 134.359 376.1 131.907C368.843 129.651 362.854 135.774 361.935 142.541C361.029 135.2 355.04 125.35 347.769 123.094C339.885 120.628 333.492 125.083 333.492 133.014C333.492 144.363 343.939 158.865 352.714 169.023L361.907 179.685Z" fill="#204341"/>
<path d="M463.796 165.24L445.368 150.92C445.368 150.92 408.22 157.001 403.86 157.337C399.501 157.674 395.656 154.367 393.999 150.065C392.341 145.764 389.736 146.226 389.736 146.226C390.432 148.633 390.575 151.168 390.154 153.638C388.65 155.264 380.056 156.889 374.262 154.913C368.467 152.938 360.068 155.81 365.264 163.74C370.459 171.671 380.585 172.61 387.55 172.61C390.484 172.591 393.414 172.395 396.325 172.021C398.595 171.727 400.866 171.489 403.15 171.335C417.58 170.298 457.263 167.313 463.796 165.24Z" fill="#FFA8A7"/>
<path d="M133.506 78.3321C146.232 76.011 146.792 77.7588 186.845 100.159C186.845 100.159 234.016 81.0307 239.61 77.7868C245.204 74.5428 253.217 72.4035 259.189 76.0529C257.74 76.0931 256.304 76.3379 254.923 76.78C254.238 77.1156 251.945 78.2901 252.238 79.3388C252.35 79.7863 252.896 79.9261 253.357 79.954C254.333 80.0265 255.315 79.9796 256.28 79.8142C257.399 79.6185 258.727 79.3388 259.497 80.1638C260.063 80.9325 260.017 81.9926 259.385 82.7086C258.76 83.3949 257.985 83.9263 257.119 84.2607L252.924 86.2042C251.902 86.6317 250.931 87.171 250.029 87.8122C249.204 88.4274 248.504 89.2105 247.651 89.8117C244.994 91.6434 241.875 90.6926 239.092 91.8811C238.617 92.0769 238.142 92.3286 237.694 92.5383C235.638 93.5171 233.68 94.6637 231.722 95.8242C226.017 99.208 220.437 102.815 214.843 106.367C209.249 109.919 203.948 113.358 198.326 116.532C196.282 117.868 194.066 118.922 191.739 119.664C184.747 121.356 144.568 103.892 144.568 103.892L133.506 78.3321Z" fill="#9E6767"/>
<path d="M117.759 10.1533H127.297C141.903 10.1919 153.722 22.0459 153.714 36.6502V41.0687C153.714 55.5826 141.967 67.3592 127.451 67.3978H117.661C110.667 67.4126 103.955 64.6452 99.0042 59.7059C94.0535 54.7667 91.2714 48.0613 91.2714 41.0687V36.6502C91.2677 29.6241 94.0567 22.8845 99.0245 17.9149C103.992 12.9454 110.732 10.1533 117.759 10.1533Z" fill="#263238"/>
<path d="M103.844 379.991V377.978C104.641 380.341 108.319 390.478 113.885 395.568C118.318 399.608 124.374 404.279 125.912 408.781C127.451 413.283 117.521 415.045 113.326 414.374C108.515 413.521 102.292 410.781 98.8932 406.628C96.5158 403.691 95.0054 400.224 93.2992 397.931C91.5931 395.637 87.7053 393.051 86.7543 390.394C86.2508 388.996 86.8522 385.724 87.5654 383.011C88.2087 380.536 88.9639 377.796 89.7611 378.033V379.558C90.782 380.69 93.6069 381.823 96.7535 381.935C98.8792 382.005 103.858 381.557 103.844 379.991Z" fill="#263238"/>
<path d="M117.927 399.119C116.528 397.889 115.13 396.7 113.913 395.554C110.025 392.002 107.06 385.976 105.354 381.865C104.376 379.521 103.872 377.007 103.872 374.468V366.456H89.789V379.502V379.837H89.8589C90.5442 382.76 96.9913 390.52 100.655 395.582C103.103 398.979 107.774 403.3 113.354 404.041C118.64 404.796 121.339 403.132 117.927 399.119Z" fill="#9E6767"/>
<path d="M158.665 366.134V364.121C159.448 366.484 163.126 376.705 168.706 381.711C173.139 385.752 179.181 390.422 180.719 394.938C182.258 399.455 172.328 401.188 168.133 400.461C163.308 399.608 157.085 396.882 153.7 392.715C151.323 389.793 149.799 386.325 148.106 384.018C146.414 381.711 142.512 379.152 141.575 376.481C141.058 375.083 141.659 371.811 142.372 369.113C143.03 366.624 143.771 363.897 144.582 364.121V365.659C145.603 366.791 148.428 367.91 151.575 368.036C153.686 368.106 158.679 367.7 158.665 366.134Z" fill="#263238"/>
<path d="M172.72 385.276C171.321 384.046 169.923 382.843 168.706 381.697C164.804 378.145 161.84 372.119 160.133 368.008C159.166 365.662 158.667 363.149 158.665 360.611V352.641H144.68V365.673V366.022C145.351 368.945 151.798 376.719 155.462 381.781C157.924 385.178 162.595 389.499 168.175 390.24C173.447 390.939 176.16 389.275 172.72 385.276Z" fill="#9E6767"/>
<path d="M92.586 161.626C81.6917 185.396 92.9776 269.221 92.9776 269.221C92.6559 273.081 88.2367 280.687 86.6005 297.676C84.6565 317.755 89.6492 368.162 89.6492 368.162C93.9966 370.685 99.3113 370.895 103.844 368.721C103.844 368.721 117.242 292.796 119.759 272.843C121.954 255.421 126.178 217.109 126.178 217.109L138.163 272.745C136.412 278.359 135.144 284.113 134.373 289.943C133.226 301.675 144.61 356.346 144.61 356.346C144.61 356.346 149.463 358.136 158.595 356.78C158.595 356.78 162.623 284.225 163.672 270.088C165.462 246.318 159.154 172.211 154.791 158.228L92.586 161.626Z" fill="#37474F"/>
<path d="M126.178 217.109L129.716 195.016C129.716 195.016 144.68 191.912 151.463 185.536C151.463 185.536 144.344 194.387 133.772 197.295L129.8 214.298L136.792 265.824L126.178 217.109Z" fill="#263238"/>
<path d="M111.801 78.9753C97.8164 79.9261 96.8654 86.6797 93.3692 94.0484C90.8024 99.7289 90.5615 106.188 92.6979 112.044L102.487 140.205C102.487 140.205 97.9422 151.223 92.6979 161.626C117.13 175.259 147.631 168.086 154.973 158.144C155.281 156.033 153.393 139.534 152.176 128.781C156.483 117.987 157.616 111.149 155.798 104.018C152.428 90.7765 139.352 77.8846 133.562 78.3461L111.801 78.9753Z" fill="#F5F5F5"/>
<path d="M103.396 159.445C103.396 159.445 106.277 147.993 107.312 145.462C108.002 143.359 110.042 142.001 112.249 142.176C109.087 140.079 106.893 136.808 106.151 133.088L103.187 118.196C103.187 118.196 108.697 100.704 108.137 94.7196L94.1523 95.5306L92.3483 96.789C90.8613 101.768 90.9984 107.092 92.7399 111.988L102.529 140.149C102.529 140.149 97.9842 151.167 92.7399 161.57C110.738 171.609 132.038 170.365 144.932 165.024L103.396 159.445Z" fill="#E6E6E6"/>
<path d="M74.8251 151.293C74.909 150.188 79.7338 120.531 83.5657 100.564C86.1389 87.0851 91.5092 82.1493 102.026 80.5273L105.76 79.9401C110.752 96.3416 107.312 103.71 100.725 114.994L94.5159 144.945L79.4821 160.144C74.3077 159.109 74.7132 152.845 74.8251 151.293Z" fill="#9E6767"/>
<path d="M143.519 22.7935C146.82 24.7511 150.903 33.0427 150.512 50.4509C150.162 65.2025 145.379 68.8519 142.988 69.9006C140.596 70.9493 135.995 70.3061 131.45 69.565V78.416C131.45 78.416 137.674 85.6449 137.282 89.6999C136.89 93.7548 128.29 94.7196 122.472 90.7486C118.697 88.035 115.459 84.6452 112.92 80.7511V59.3578C112.92 59.3578 109.871 63.4127 104.907 60.1129C99.9421 56.813 99.7463 48.6332 102.627 45.6969C105.508 42.7606 111.759 43.6974 112.92 47.7523C112.92 47.7523 120.094 48.018 129.702 42.7606C137.222 38.6813 142.352 31.2678 143.519 22.7935Z" fill="#9E6767"/>
<path d="M134.023 46.7456C134.037 47.7631 133.231 48.6028 132.213 48.63C131.196 48.6571 130.346 47.8616 130.305 46.8448C130.265 45.828 131.049 44.9675 132.066 44.9139C132.569 44.895 133.059 45.0779 133.426 45.4218C133.794 45.7658 134.009 46.2424 134.023 46.7456Z" fill="#263238"/>
<path d="M134.513 59.2599L138.82 60.6582C138.665 61.2404 138.278 61.7339 137.75 62.0243C137.222 62.3147 136.598 62.3768 136.023 62.1963C134.806 61.7899 134.136 60.4864 134.513 59.2599Z" fill="#874C4C"/>
<path d="M149.239 41.0547L145.477 38.4539C145.795 37.9427 146.309 37.5844 146.898 37.4628C147.488 37.3412 148.102 37.467 148.596 37.8107C149.638 38.5497 149.92 39.9741 149.239 41.0547Z" fill="#263238"/>
<path d="M148.372 45.4032C148.386 46.4207 147.579 47.2605 146.562 47.2876C145.544 47.3148 144.694 46.5193 144.654 45.5024C144.613 44.4856 145.398 43.6252 146.414 43.5715C146.917 43.5527 147.407 43.7355 147.775 44.0795C148.142 44.4235 148.357 44.9 148.372 45.4032Z" fill="#263238"/>
<path d="M139.617 44.3546L139.911 55.5126L145.785 53.6949L139.617 44.3546Z" fill="#874C4C"/>
<path d="M131.436 69.565C126.695 68.9358 116.92 66.1393 115.409 62.2801C116.017 64.2308 117.208 65.9485 118.822 67.2019C121.745 69.7048 131.408 72.5153 131.408 72.5153L131.436 69.565Z" fill="#874C4C"/>
<path d="M177.335 177.384L168.44 172.644C159.952 168.128 149.826 160.451 149.826 149.573C149.826 141.952 155.994 133.857 163.616 131.508C170.608 129.34 176.426 135.213 177.307 141.715C178.188 134.723 183.978 125.201 190.984 123.034C198.606 120.685 204.787 124.95 204.787 132.57C204.787 143.463 194.69 157.375 186.215 167.135L177.335 177.384Z" fill="#204341"/>
<path d="M79.4821 160.13L94.5159 144.931C94.5159 144.931 132.457 153.32 136.737 153.726C141.016 154.131 144.414 150.202 147.421 146.818C148.16 145.929 149.258 145.416 150.414 145.42C149.991 146.776 149.862 148.206 150.036 149.615C150.68 151.405 160.119 153.32 165.825 151.391C171.531 149.461 179.81 152.258 174.65 160.018C169.489 167.778 159.616 168.659 152.707 168.673C149.822 168.653 146.941 168.462 144.079 168.1C141.855 167.806 139.631 167.582 137.38 167.415C123.269 166.366 85.9012 162.143 79.4821 160.13Z" fill="#9E6767"/>
<path d="M95.1593 13.4951C101.257 16.0539 99.8862 21.2834 97.3409 27.3658C94.7956 33.4482 92.0266 38.1183 85.9292 35.5595C79.8352 33.0112 76.9613 26.006 79.5101 19.9131C82.0589 13.8202 89.0653 10.9467 95.1593 13.4951Z" fill="#263238"/>
<path d="M100.529 18.9483L102.669 8.76904C101.334 8.41758 99.9128 8.62832 98.7369 9.35219C97.5611 10.0761 96.7332 11.2499 96.4459 12.6002C95.8935 15.467 97.6914 18.2618 100.529 18.9483Z" fill="#263238"/>
</svg>
