<?xml version="1.0" standalone="no"?><svg xmlns="http://www.w3.org/2000/svg" viewBox="0 0 1440 320"><path fill="#0099ff" fill-opacity="1" d="M0,160L30,144C60,128,120,96,180,101.3C240,107,300,149,360,160C420,171,480,149,540,128C600,107,660,85,720,96C780,107,840,149,900,160C960,171,1020,149,1080,138.7C1140,128,1200,128,1260,154.7C1320,181,1380,235,1410,261.3L1440,288L1440,320L1410,320C1380,320,1320,320,1260,320C1200,320,1140,320,1080,320C1020,320,960,320,900,320C840,320,780,320,720,320C660,320,600,320,540,320C480,320,420,320,360,320C300,320,240,320,180,320C120,320,60,320,30,320L0,320Z"></path></svg>